<svg xmlns="http://www.w3.org/2000/svg" width="94" height="94" viewBox="0 0 94 94">
  <defs>
    <style>
      .cls-1 {
        fill: #93a888;
      }

      .cls-2 {
        fill: #f8f9f7;
      }
    </style>
  </defs>
  <g id="Layer_1" data-name="Layer 1">
    <rect class="cls-1" x="13.49" y="10.3" width="72" height="72" rx="19.1"/>
  </g>
  <g id="Layer_2" data-name="Layer 2">
    <path class="cls-2" d="M37.08,45.78q0-6.81,0-13.6c0-2.41,1.52-4.09,3.44-3.86,1.33.15,2.81,1.42,2.8,3.79,0,2,0,4.08,0,6.12V51.82c0,2.59,0,5.18,0,7.76,0,2-1.08,3.44-2.76,3.73a3.14,3.14,0,0,1-3.39-2.9,31.27,31.27,0,0,1-.1-3.36c0-1.89,0-3.77,0-5.66Z"/>
    <path class="cls-2" d="M56.24,45.71c0-4.54,0-9.07,0-13.6,0-2.41,1.52-4.09,3.44-3.86,1.33.15,2.81,1.42,2.8,3.79,0,2,0,4.08,0,6.12v13.6c0,2.58,0,5.17,0,7.75,0,2-1.08,3.44-2.76,3.74a3.16,3.16,0,0,1-3.39-2.9,31.53,31.53,0,0,1-.1-3.37c0-1.89,0-3.77,0-5.66S56.24,47.58,56.24,45.71Z"/>
  </g>
</svg>
