<svg id="Layer_1" data-name="Layer 1" xmlns="http://www.w3.org/2000/svg" width="94" height="94" viewBox="0 0 94 94">
  <defs>
    <style>
      .cls-1 {
        fill: #93a888;
      }

      .cls-2 {
        fill: #fff;
      }
    </style>
  </defs>
  <rect class="cls-1" x="28.49" y="16.3" width="56" height="56" rx="19.1"/>
  <path class="cls-2" d="M46.84,43.89c0-3.52,0-7,0-10.58,0-1.87,1.19-3.17,2.68-3a2.72,2.72,0,0,1,2.18,2.95c0,1.59,0,3.17,0,4.76V48.6c0,2,0,4,0,6a2.69,2.69,0,0,1-2.15,2.9,2.43,2.43,0,0,1-2.63-2.25,22.86,22.86,0,0,1-.08-2.62c0-1.47,0-2.94,0-4.4Z"/>
  <path class="cls-2" d="M61.74,43.84c0-3.53,0-7.05,0-10.58,0-1.87,1.18-3.18,2.68-3a2.7,2.7,0,0,1,2.17,2.95c0,1.58,0,3.17,0,4.76V48.54c0,2,0,4,0,6a2.69,2.69,0,0,1-2.14,2.9,2.46,2.46,0,0,1-2.64-2.26,25.3,25.3,0,0,1-.08-2.62c0-1.46,0-2.93,0-4.4Z"/>
</svg>
